<!DOCTYPE svg PUBLIC "-//W3C//DTD SVG 1.1//EN" "http://www.w3.org/Graphics/SVG/1.1/DTD/svg11.dtd">
<!-- Uploaded to: SVG Repo, www.svgrepo.com, Transformed by: SVG Repo Mixer Tools -->
<svg fill="#29db73" width="800px" height="800px" viewBox="-1 0 19 19" xmlns="http://www.w3.org/2000/svg" class="cf-icon-svg" stroke="#29db73" stroke-width="0.00019">
<g id="SVGRepo_bgCarrier" stroke-width="0"/>
<g id="SVGRepo_tracerCarrier" stroke-linecap="round" stroke-linejoin="round"/>
<g id="SVGRepo_iconCarrier">
<path d="M16.417 9.583A7.917 7.917 0 1 1 8.5 1.666a7.917 7.917 0 0 1 7.917 7.917zM13.18 6.62a.794.794 0 0 0-.792-.792H4.654a.794.794 0 0 0-.791.792v5.187a.794.794 0 0 0 .791.791h4.5l.013.01 2.367 1.476c.147.092.268.025.268-.15V12.6h.587a.794.794 0 0 0 .792-.791zm-1.352 1.376H5.241v.792h6.588zm0 1.786H5.241v.791h6.588z"/>
</g>
</svg>